<?xml version="1.0" standalone="no"?>
<!DOCTYPE svg PUBLIC "-//W3C//DTD SVG 20010904//EN"
 "http://www.w3.org/TR/2001/REC-SVG-20010904/DTD/svg10.dtd">
<svg version="1.0" xmlns="http://www.w3.org/2000/svg"
 width="700.000000pt" height="700.000000pt" viewBox="0 0 700.000000 700.000000"
 preserveAspectRatio="xMidYMid meet">
<metadata>
Created by potrace 1.14, written by Peter Selinger 2001-2017
</metadata>
<g transform="translate(0.000000,700.000000) scale(0.100000,-0.100000)"
fill="#000000" stroke="none">
<path d="M654 6990 c-67 -14 -162 -57 -227 -103 -326 -233 -489 -785 -403
-1367 6 -36 7 -43 25 -121 74 -323 256 -586 477 -691 118 -56 131 -56 959 -56
418 0 778 -1 801 -1 l40 -1 0 -1977 c0 -1610 3 -1988 14 -2033 70 -287 357
-509 778 -600 124 -27 214 -35 392 -35 129 0 284 10 299 20 4 2 24 6 46 9 22
4 74 16 115 27 367 98 618 307 687 572 15 56 16 249 17 2040 l0 1977 41 0 c22
1 396 2 830 3 781 3 791 3 855 25 224 75 404 278 509 577 12 33 26 80 32 105
6 25 13 53 15 63 29 122 39 228 38 417 0 137 -5 222 -17 285 -9 50 -19 104
-22 120 -12 61 -76 238 -116 317 -106 211 -239 336 -439 415 -43 17 -190 18
-2875 19 -1557 1 -2848 -2 -2871 -6z m4934 -541 c-43 -111 -85 -277 -94 -379
-3 -36 -8 -76 -10 -90 -6 -36 -5 -277 1 -330 6 -46 25 -173 30 -200 22 -111
48 -191 93 -292 12 -26 18 -49 14 -51 -4 -2 -317 -4 -695 -3 -379 1 -692 -1
-697 -4 -4 -3 -7 -987 -7 -2187 l0 -2182 -29 -38 c-41 -54 -70 -78 -147 -118
-79 -42 -185 -80 -265 -95 -32 -5 -68 -13 -82 -16 -14 -3 -94 -7 -179 -8 -229
-4 -399 30 -562 115 -95 50 -166 117 -175 166 -4 20 -7 1010 -7 2200 0 1972
-2 2163 -16 2164 -9 0 -469 2 -1023 2 l-1006 2 -43 30 c-163 114 -271 522
-228 860 31 248 142 484 254 540 26 13 321 15 2471 15 l2442 0 -40 -101z m695
87 c87 -36 203 -239 233 -409 2 -17 7 -33 9 -37 11 -17 20 -152 19 -285 -1
-165 -23 -296 -70 -421 -67 -180 -172 -294 -256 -277 -65 13 -151 121 -207
260 -61 150 -81 280 -76 488 2 83 5 161 8 175 2 14 10 54 17 90 23 127 108
309 173 371 32 31 79 59 100 59 10 0 32 -6 50 -14z"/>
</g>
</svg>
