<?xml version="1.0" standalone="no"?>
<!DOCTYPE svg PUBLIC "-//W3C//DTD SVG 20010904//EN"
 "http://www.w3.org/TR/2001/REC-SVG-20010904/DTD/svg10.dtd">
<svg version="1.0" xmlns="http://www.w3.org/2000/svg"
 width="700.000000pt" height="700.000000pt" viewBox="0 0 700.000000 700.000000"
 preserveAspectRatio="xMidYMid meet">
<metadata>
Created by potrace 1.14, written by Peter Selinger 2001-2017
</metadata>
<g transform="translate(0.000000,700.000000) scale(0.100000,-0.100000)"
fill="#000000" stroke="none">
<path d="M654 6990 c-108 -22 -244 -101 -330 -192 -127 -134 -229 -337 -278
-558 -14 -62 -18 -86 -36 -210 -8 -59 -5 -392 4 -450 3 -19 8 -51 11 -70 3
-19 7 -42 10 -50 2 -8 6 -28 9 -43 12 -70 70 -234 112 -318 91 -178 220 -318
360 -388 118 -58 135 -59 969 -59 418 0 778 -1 801 -1 l40 -1 0 -1977 c0
-2118 -2 -2024 50 -2138 89 -196 301 -362 572 -450 45 -14 93 -28 108 -31 15
-3 31 -7 35 -9 4 -3 24 -7 45 -10 22 -4 46 -8 54 -10 101 -27 492 -27 620 0
14 3 41 8 60 11 77 12 234 62 326 104 255 115 439 325 471 535 3 22 6 925 7
2008 l0 1967 41 0 c22 1 384 1 805 2 619 1 778 4 834 15 197 41 377 200 491
436 41 86 109 267 100 267 -3 0 0 11 5 25 5 14 12 46 16 72 3 27 8 51 10 54
24 40 24 475 1 604 -9 50 -19 104 -22 120 -12 61 -76 238 -116 317 -106 212
-238 336 -439 415 -43 17 -190 18 -2875 19 -1557 1 -2848 -2 -2871 -6z"/>
</g>
</svg>
